<?xml version="1.0" encoding="UTF-8"?><svg id="Layer_2" xmlns="http://www.w3.org/2000/svg" viewBox="0 0 20 18"><defs><style>.cls-1{fill:#59b256;}</style></defs><g id="Layer_1-2"><g><path class="cls-1" d="M19,9.22C19,3.73,14.74,0,10,0S1,3.65,1,9.28c-.6,.34-1,.98-1,1.72v2c0,1.1,.9,2,2,2h1v-6.1c0-3.87,3.13-7,7-7s7,3.13,7,7v7.1H9v2h8c1.1,0,2-.9,2-2v-1.22c.59-.31,1-.92,1-1.64v-2.3c0-.7-.41-1.31-1-1.62Z"/><circle class="cls-1" cx="7" cy="10" r="1"/><circle class="cls-1" cx="13" cy="10" r="1"/><path class="cls-1" d="M16,8.03c-.48-2.85-2.96-5.03-5.95-5.03s-6.29,2.51-6.03,6.45c2.47-1.01,4.33-3.21,4.86-5.89,1.31,2.63,4,4.44,7.12,4.47Z"/></g></g></svg>